<?xml version="1.0" encoding="utf-8"?>
<!-- Generator: Adobe Illustrator 25.4.1, SVG Export Plug-In . SVG Version: 6.00 Build 0)  -->
<svg version="1.1" id="Layer_1" xmlns="http://www.w3.org/2000/svg" xmlns:xlink="http://www.w3.org/1999/xlink" x="0px" y="0px"
	 viewBox="0 0 1920 1080" style="enable-background:new 0 0 1920 1080;" xml:space="preserve">
<style type="text/css">
	.st0{fill:#990707;}
	.st1{clip-path:url(#SVGID_00000172439638750800060860000011792806853654353589_);}
	.st2{enable-background:new    ;}
	.st3{fill:#650505;}
	.st4{fill:#660505;}
	.st5{fill:#4D0404;}
	.st6{fill:#610404;}
	.st7{fill:#8D0606;}
</style>
<path class="st0" d="M1756,607"/>
<g>
	<defs>
		<rect id="SVGID_1_" width="1920" height="1080"/>
	</defs>
	<clipPath id="SVGID_00000153674404100949444910000017787102741106916537_">
		<use xlink:href="#SVGID_1_"  style="overflow:visible;"/>
	</clipPath>
	<g style="clip-path:url(#SVGID_00000153674404100949444910000017787102741106916537_);">
		<g>
			<g class="st2">
				<g>
					<polygon class="st3" points="1232.5,418.9 1234.6,500 1131.7,500 1123.8,418.9 					"/>
				</g>
				<g>
					<polygon class="st4" points="1414,418.1 1406.4,499.2 1316.1,500.7 1318.7,419.7 					"/>
				</g>
				<g>
					<polygon class="st5" points="1416.3,426.4 1408.5,507.3 1406.4,499.2 1414,418.1 					"/>
				</g>
				<g>
					<polygon class="st3" points="1320.4,426.4 1317.7,507.3 1234.7,507.3 1232.6,426.4 					"/>
				</g>
				<g>
					<polygon class="st6" points="1123.8,418.9 1131.7,500 1131.4,507.3 1123.5,426.4 					"/>
				</g>
				<g>
					<polygon class="st7" points="1429.6,389.1 1450.1,426.4 1416.3,426.4 1414,418.1 1318.7,419.7 1320.4,426.4 1232.6,426.4 
						1232.5,418.9 1123.8,418.9 1123.5,426.4 1091.9,426.4 1092.1,424 1094.9,389.1 1120,389.1 1119.4,397.7 1228.3,397.5 
						1228.5,389.1 1307.2,389.1 1307.3,397.7 1405.1,397.5 1404.6,389.1 					"/>
				</g>
				<g>
					<polygon class="st3" points="1123.5,426.4 1131.4,507.3 1101.6,507.3 1091.9,426.4 					"/>
				</g>
				<g>
					<polygon class="st3" points="1450.1,426.4 1440.4,507.3 1408.5,507.3 1416.3,426.4 					"/>
				</g>
			</g>
		</g>
	</g>
</g>
</svg>
