<?xml version="1.0" encoding="utf-8"?>
<!-- Generator: Adobe Illustrator 25.0.1, SVG Export Plug-In . SVG Version: 6.00 Build 0)  -->
<svg version="1.1" xmlns="http://www.w3.org/2000/svg" xmlns:xlink="http://www.w3.org/1999/xlink" x="0px" y="0px"
	 viewBox="0 0 250 250" style="enable-background:new 0 0 250 250;" xml:space="preserve">
<style type="text/css">
	.st0{display:none;}
	.st1{display:inline;fill:#FFFFFF;stroke:#000000;stroke-miterlimit:10;}
	.st2{fill:#FFFFFF;stroke:#000000;stroke-miterlimit:10;}
</style>
<g id="Layer_3" class="st0">
	
		<image style="display:inline;overflow:visible;" width="1500" height="1500" xlink:href="../Bunchana/Bunchana1.png"  transform="matrix(0.2204 0 0 0.2204 -32.7441 -51.9831)">
	</image>
</g>
<g id="Layer_4" class="st0">
	<polygon class="st1" points="64.1,32.2 194.7,32.2 194.7,61.6 225.6,61.6 225.6,194.1 202.9,194.1 202.9,217.9 119.2,217.9 
		119.2,190.4 93.1,190.4 93.1,164.7 67.8,164.7 67.8,137.9 19.1,137.9 19.1,109.6 41.1,109.6 41.1,53.8 62.3,53.8 62.3,32.2 	"/>
</g>
<g id="Layer_5" class="st0">
	
		<image style="display:inline;overflow:visible;" width="1500" height="1500" xlink:href="../Bunchana/Bunchana2to5_final.png"  transform="matrix(0.2473 0 0 0.2473 -58.5743 -78.9467)">
	</image>
</g>
<g id="Layer_6" class="st0">
	<polygon class="st1" points="53.4,24.4 53.4,49.3 30.4,49.3 30.4,165.1 58.3,165.1 58.3,191.8 85.4,191.8 85.4,222.4 201.1,222.4 
		201.1,197.1 223.8,197.1 223.8,55.7 206.4,55.7 191.5,40.8 191.5,24.4 	"/>
</g>
<g id="Layer_7" class="st0">
	
		<image style="display:inline;overflow:visible;" width="1500" height="1500" xlink:href="../Bunchana/Bunchana6to12_final.png"  transform="matrix(0.2685 0 0 0.2685 -63.8304 -79.8537)">
	</image>
</g>
<g id="Layer_8" class="st0">
	<polygon class="st1" points="25.9,25.1 25.9,128.2 118.2,128.2 118.2,221.6 217.9,221.6 217.9,63.5 183.7,63.5 183.7,25.1 	"/>
</g>
<g id="Layer_9" class="st0">
	<polygon class="st1" points="15.7,80 15.7,168.4 35.9,168.4 35.9,180.3 196.5,180.3 196.5,177 204.7,177 204.7,180.3 230.2,180.3 
		230.2,91.4 202.4,91.4 184,87.3 165.2,87.3 165.2,95.1 162.8,95.1 162.8,91 142.9,91 142.9,80.2 141.2,80.2 141.2,69.4 121.3,69.4 
		121.3,67.8 36.3,67.8 36.3,69.4 18.1,69.4 18.1,80 	"/>
</g>
<g id="Layer_11" class="st0">
	<polygon class="st1" points="11.6,61.1 31.3,61.1 31.3,59.4 123,59.4 123,61.1 143.7,61.1 143.7,73 145.5,73 145.5,84.7 
		166.7,84.7 166.7,89.5 169.9,89.5 169.9,80.4 189.4,80.4 209.9,84.7 239.3,84.7 239.3,180.7 211.6,180.7 211.6,177 203.4,177 
		203.4,180.7 167.7,180.7 167.7,149.2 145.3,149.2 145.3,167.8 122.6,167.8 122.6,180.7 31.3,180.7 31.3,167.7 9.3,167.7 9.3,73 
		11,73 11,60.9 	"/>
</g>
<g id="Layer_10" class="st0">
	
		<image style="display:inline;overflow:visible;" width="1500" height="1500" xlink:href="../Malai/Malai1to9_final.png"  transform="matrix(0.1639 0 0 0.1639 2.0936 11.5847)">
	</image>
</g>
<g id="Layer_12" class="st0">
	<polygon class="st1" points="19.8,103.8 232.1,103.8 232.1,119.4 234.9,119.4 234.9,132.8 232.4,132.8 232.4,145.9 221.8,145.9 
		221.8,137.8 137.8,137.8 137.8,145.9 115.2,145.9 115.2,137.8 30.9,137.8 30.9,145.9 19.8,145.9 19.8,134.5 17,134.5 17,119.1 
		19.4,119.1 	"/>
</g>
<g id="Layer_13" class="st0">
	<path class="st1" d="M41.5,65.7L41.5,65.7L41.5,65.7z"/>
	<polygon class="st1" points="41.5,65.7 43.7,63.6 54,63.6 54,39.1 65.9,39.1 65.9,26.4 76.1,26.4 76.1,29.4 87.1,29.4 87.1,26.4 
		97.3,26.4 97.3,29.6 108.3,29.6 108.3,26.4 118.4,26.4 118.4,29.8 158.5,29.8 158.5,26.4 168.6,26.4 168.6,29.6 179.4,29.6 
		179.4,26.4 189.4,26.4 189.4,29.8 200.4,29.8 200.4,26.4 210.4,26.4 210.4,38.7 215.7,38.7 215.7,82.6 222.7,82.6 222.7,98.3 
		203.2,98.3 203.2,154.3 222.7,154.3 222.7,169.9 215.5,169.9 215.5,213.6 210.6,213.6 210.6,226.3 200.4,226.3 200.4,223.1 
		189.4,223.1 189.4,226.3 179.4,226.3 179.4,222.9 168.6,222.9 168.6,226.3 158.5,226.3 158.5,223.1 118.4,223.1 118.4,226.3 
		107.9,226.3 107.9,222.9 97.3,222.9 97.3,226.3 87.1,226.3 87.1,223.1 76.7,223.1 76.7,226.3 66.3,226.3 66.3,213.2 54,213.2 
		54,188.5 43.6,188.5 41.4,186.3 41.4,160 30.4,160 27.2,156.9 27.2,135.8 23.5,135.8 23.5,116.9 27.2,116.9 27.2,96.4 31.5,92.1 
		41.5,92.1 	"/>
</g>
<g id="Layer_14" class="st0">
</g>
<g id="Layer_15" class="st0">
	
		<image style="display:inline;overflow:visible;" width="1500" height="1500" xlink:href="../Navamin/Navamin1.png"  transform="matrix(0.1917 0 0 0.1917 -16.4935 -30.6114)">
	</image>
</g>
<g id="Layer_16" class="st0">
	<polygon class="st1" points="41.8,44.8 72.2,44.8 72.2,18.3 187.1,18.3 187.1,44.8 218.1,44.8 218.1,208.8 152.9,208.8 
		152.9,235.3 106,235.3 106,226.9 113.5,226.9 113.5,208.1 41.8,208.1 41.8,182.6 29.2,182.6 29.2,71.3 41.2,71.3 41.2,44.5 	"/>
</g>
<g id="Layer_17" class="st0">
	
		<image style="display:inline;overflow:visible;" width="1500" height="1500" xlink:href="../Navamin/Navamin2to3_final.png"  transform="matrix(0.1944 0 0 0.1944 -26.6253 -23.7504)">
	</image>
</g>
<g id="Layer_18" class="st0">
	<polygon class="st1" points="68.3,26.4 182.2,26.4 182.2,54.2 214.2,54.2 214.2,85.2 231.6,85.2 231.6,125 213.9,125 213.9,147.8 
		231.6,147.8 231.6,186.5 213.9,186.5 213.9,218.5 142.5,218.5 142.5,197.2 107.3,197.2 107.3,218.5 36,218.5 36,186.8 18.2,186.8 
		18.2,147.8 36,147.8 36,125 18.2,125 18.2,85.5 35.7,85.5 35.7,52.5 67.3,52.5 67.3,26.4 	"/>
</g>
<g id="Layer_19" class="st0">
	<polygon class="st1" points="68.3,20.9 182.9,20.9 182.9,49.3 211.6,49.3 211.6,78.7 228.7,78.7 228.7,177.8 212.3,177.8 
		212.3,207.5 180.9,207.5 180.9,225.6 164.5,225.6 164.5,235.3 87,235.3 87,225.6 70.2,225.6 70.2,208.1 38.9,208.1 38.9,178.1 
		23.1,178.1 23.1,80 39.5,80 39.5,48.4 67.6,48.4 67.6,20.9 	"/>
</g>
<g id="Layer_20" class="st0">
	<polygon class="st1" points="23.7,29.3 102.8,29.3 102.8,64.2 114.8,64.2 114.8,61.3 134.8,61.3 134.8,64.2 146.7,64.2 146.7,29.3 
		226.1,29.3 226.1,109.4 187.1,109.4 187.1,135.8 226.1,135.8 226.1,217.2 145.8,217.2 145.8,178.4 102.5,178.4 102.5,217.2 
		23.7,217.2 23.7,135.5 61.5,135.5 61.5,108.7 23.7,108.7 	"/>
</g>
<g id="Layer_21" class="st0">
	
		<image style="display:inline;overflow:visible;" width="1500" height="1500" xlink:href="../Navamin/Navamin11to22.png"  transform="matrix(0.1854 0 0 0.1854 -12.4219 -14.0663)">
	</image>
</g>
<g id="Layer_22" class="st0">
	<polygon class="st1" points="46,29 104.1,29 104.1,65.5 115.4,65.5 115.4,61.9 135.4,61.9 135.4,65.5 146.4,65.5 146.4,29 
		204.8,29 229.5,53.7 229.5,112.3 205.8,112.3 205.8,139.4 229.5,139.4 229.5,197.2 205.4,221.3 146.1,221.3 146.1,181.3 
		103.8,181.3 103.8,221.3 46,221.3 21.5,196.8 21.5,138.1 45,138.1 45,111.6 21.5,111.6 21.5,54.2 	"/>
</g>
<g id="Layer_23">
	<path class="st2" d="M7.6,149.1h50.4v-4.5h182.4v-30.7h-40.7v-4.2h-11v-4.5h4.5c0,0-56.8-39.7-123.3-12.6h-8.1v9.7H49.2V90H20.8
		v26.1H7.6V149.1z"/>
</g>
<g id="Layer_24">
</g>
</svg>
