<?xml version="1.0" encoding="utf-8"?>
<!-- Generator: Adobe Illustrator 25.0.1, SVG Export Plug-In . SVG Version: 6.00 Build 0)  -->
<svg version="1.1" xmlns="http://www.w3.org/2000/svg" xmlns:xlink="http://www.w3.org/1999/xlink" x="0px" y="0px"
	 viewBox="0 0 250 250" style="enable-background:new 0 0 250 250;" xml:space="preserve">
<style type="text/css">
	.st0{display:none;}
	.st1{display:inline;fill:#FFFFFF;stroke:#000000;stroke-miterlimit:10;}
	.st2{fill:#FFFFFF;stroke:#000000;stroke-miterlimit:10;}
</style>
<g id="Layer_3" class="st0">
	
		<image style="display:inline;overflow:visible;" width="1500" height="1500" xlink:href="../Bunchana/Bunchana1.png"  transform="matrix(0.2204 0 0 0.2204 -32.7441 -51.9831)">
	</image>
</g>
<g id="Layer_4" class="st0">
	<polygon class="st1" points="64.1,32.2 194.7,32.2 194.7,61.6 225.6,61.6 225.6,194.1 202.9,194.1 202.9,217.9 119.2,217.9 
		119.2,190.4 93.1,190.4 93.1,164.7 67.8,164.7 67.8,137.9 19.1,137.9 19.1,109.6 41.1,109.6 41.1,53.8 62.3,53.8 62.3,32.2 	"/>
</g>
<g id="Layer_5" class="st0">
	
		<image style="display:inline;overflow:visible;" width="1500" height="1500" xlink:href="../Bunchana/Bunchana2to5_final.png"  transform="matrix(0.2473 0 0 0.2473 -58.5743 -78.9467)">
	</image>
</g>
<g id="Layer_6" class="st0">
	<polygon class="st1" points="53.4,24.4 53.4,49.3 30.4,49.3 30.4,165.1 58.3,165.1 58.3,191.8 85.4,191.8 85.4,222.4 201.1,222.4 
		201.1,197.1 223.8,197.1 223.8,55.7 206.4,55.7 191.5,40.8 191.5,24.4 	"/>
</g>
<g id="Layer_7" class="st0">
	
		<image style="display:inline;overflow:visible;" width="1500" height="1500" xlink:href="../Bunchana/Bunchana6to12_final.png"  transform="matrix(0.2685 0 0 0.2685 -63.8304 -79.8537)">
	</image>
</g>
<g id="Layer_8" class="st0">
	<polygon class="st1" points="25.9,25.1 25.9,128.2 118.2,128.2 118.2,221.6 217.9,221.6 217.9,63.5 183.7,63.5 183.7,25.1 	"/>
</g>
<g id="Layer_9">
	<polygon class="st2" points="15.7,80 15.7,168.4 35.9,168.4 35.9,180.3 196.5,180.3 196.5,177 204.7,177 204.7,180.3 230.2,180.3 
		230.2,91.4 202.4,91.4 184,87.3 165.2,87.3 165.2,95.1 162.8,95.1 162.8,91 142.9,91 142.9,80.2 141.2,80.2 141.2,69.4 121.3,69.4 
		121.3,67.8 36.3,67.8 36.3,69.4 18.1,69.4 18.1,80 	"/>
</g>
<g id="Layer_10" class="st0">
</g>
</svg>
