<?xml version="1.0" encoding="utf-8"?>
<!-- Generator: Adobe Illustrator 25.0.1, SVG Export Plug-In . SVG Version: 6.00 Build 0)  -->
<svg version="1.1" xmlns="http://www.w3.org/2000/svg" xmlns:xlink="http://www.w3.org/1999/xlink" x="0px" y="0px"
	 viewBox="0 0 250 250" style="enable-background:new 0 0 250 250;" xml:space="preserve">
<style type="text/css">
	.st0{fill:#FFFFFF;stroke:#000000;stroke-miterlimit:10;}
	.st1{display:none;}
</style>
<g id="Layer_1">
	<path class="st0" d="M207.2,151.8l-3.8,26.9h-3.8c-9,41.4-17.3,53.1-17.3,53.1l-21.7-9.7H92.9l-6.5,3.4l1.6,3.4L73,236.4l-1.8-3.5
		l-3.6,1.5c-4.9-11.1-9.3-24.1-9.3-24.1H52v-3.7h2.8V191h2.1l-3.1-13.3l0.7-0.2l-1.5-10.6h-4.7c-6.9-35.8,0-74.8,0-74.8l4.5,2
		l1.7-9.9L50.4,83C57,43.6,71.1,25.7,71.1,25.7L84.9,30L91,11.6l9.3,9.1l-3,9.3l17.1,5.4c14-5.8,24.9,0,24.9,0l16.9-5l-3.2-9.4
		l9.7-9.4l6,18.8l9.1-3l3.5-2.8c22,28.1,25.7,86,25.7,86h-1.9c3,18.8,0,41.2,0,41.2H207.2z"/>
</g>
<g id="Layer_2" class="st1">
	
		<image style="display:inline;overflow:visible;" width="1500" height="1500" xlink:href="Auditorium1-2_nbg.png"  transform="matrix(0.1667 0 0 0.1667 0 0)">
	</image>
</g>
</svg>
