<?xml version="1.0" encoding="utf-8"?>
<!-- Generator: Adobe Illustrator 25.4.1, SVG Export Plug-In . SVG Version: 6.00 Build 0)  -->
<svg version="1.1" id="Layer_1" xmlns="http://www.w3.org/2000/svg" xmlns:xlink="http://www.w3.org/1999/xlink" x="0px" y="0px"
	 viewBox="0 0 1920 1080" style="enable-background:new 0 0 1920 1080;" xml:space="preserve">
<style type="text/css">
	.st0{fill:#990707;}
	.st1{clip-path:url(#SVGID_00000179634069780745394770000001641947550137467308_);}
	.st2{enable-background:new    ;}
	.st3{clip-path:url(#SVGID_00000077290243591207491200000008040229637310371462_);enable-background:new    ;}
	.st4{fill:#5C0404;}
	.st5{fill:#5F0404;}
	.st6{fill:#590404;}
	.st7{fill:#560404;}
	.st8{fill:#530404;}
	.st9{fill:#500404;}
	.st10{fill:#8D0606;}
</style>
<path class="st0" d="M1756,607"/>
<g>
	<defs>
		<rect id="SVGID_1_" width="1920" height="1080"/>
	</defs>
	<clipPath id="SVGID_00000115496581444575156830000000521719392557185981_">
		<use xlink:href="#SVGID_1_"  style="overflow:visible;"/>
	</clipPath>
	<g style="clip-path:url(#SVGID_00000115496581444575156830000000521719392557185981_);">
		<g>
			<g class="st2">
				<g class="st2">
					<g>
						<defs>
							<path id="SVGID_00000025409578322019307520000007769688278625060751_" d="M497.8,690.6l-1,9.4c-0.7,7.1-5.3,13.9-13,20.1
								c-7.8,6.2-18.7,11.9-32.1,16.6c-13.5,4.8-29.4,8.6-47.1,11.3s-37.2,4.1-57.6,4.1s-39.9-1.5-57.6-4.1
								c-17.7-2.7-33.7-6.5-47.1-11.3c-13.4-4.7-24.4-10.4-32.1-16.6c-7.7-6.2-12.3-13-13-20.1l-1-9.4c0.7,7.1,5.3,14,13.1,20.2
								s18.8,11.9,32.3,16.6c13.6,4.8,29.6,8.6,47.4,11.3c17.9,2.7,37.4,4.2,58,4.2c20.5,0,40.1-1.5,58-4.2
								c17.8-2.7,33.9-6.5,47.4-11.3c13.5-4.7,24.5-10.4,32.3-16.6C492.5,704.6,497.1,697.8,497.8,690.6z"/>
						</defs>
						<clipPath id="SVGID_00000176756685319389293910000017088838419634923654_">
							<use xlink:href="#SVGID_00000025409578322019307520000007769688278625060751_"  style="overflow:visible;"/>
						</clipPath>
						<g style="clip-path:url(#SVGID_00000176756685319389293910000017088838419634923654_);enable-background:new    ;">
							<path class="st4" d="M497.8,690.6l-1,9.4c0,0.2-0.1,0.5-0.1,0.7s-0.1,0.5-0.1,0.7s-0.1,0.5-0.1,0.7s-0.1,0.5-0.2,0.7l1-9.4
								c0.1-0.2,0.1-0.5,0.2-0.7s0.1-0.5,0.1-0.7s0.1-0.5,0.1-0.7C497.7,691.1,497.8,690.9,497.8,690.6"/>
							<path class="st5" d="M497.3,693.5l-1,9.4c-0.6,2.4-1.6,4.8-3.1,7.1s-3.3,4.6-5.6,6.8c-2.3,2.2-4.9,4.4-8,6.4
								c-3,2.1-6.4,4.1-10.1,6l0.8-9.3c3.7-1.9,7.2-3.9,10.2-6s5.7-4.2,8-6.4s4.2-4.5,5.6-6.8C495.7,698.3,496.7,695.9,497.3,693.5"
								/>
							<path class="st4" d="M470.4,719.9l-0.8,9.3c-1.9,1-4,2-6.1,2.9s-4.3,1.9-6.6,2.7c-2.3,0.9-4.6,1.7-7.1,2.6
								c-2.4,0.8-5,1.6-7.5,2.4l0.6-9.3c2.6-0.8,5.1-1.6,7.6-2.4c2.5-0.8,4.8-1.7,7.1-2.6c2.3-0.9,4.5-1.8,6.6-2.7
								C466.4,721.8,468.4,720.8,470.4,719.9"/>
							<path class="st6" d="M442.9,730.5l-0.6,9.3c-2.9,0.9-6,1.7-9.1,2.5s-6.4,1.5-9.7,2.3c-3.3,0.7-6.7,1.4-10.2,2
								s-7,1.2-10.6,1.7l0.4-9.3c3.6-0.5,7.2-1.1,10.7-1.7c3.5-0.6,6.9-1.3,10.2-2c3.3-0.7,6.6-1.5,9.7-2.3
								C436.9,732.2,439.9,731.4,442.9,730.5"/>
							<path class="st7" d="M403.1,739l-0.4,9.3c-4.2,0.6-8.4,1.1-12.8,1.6s-8.8,0.9-13.3,1.2s-9.1,0.6-13.8,0.8
								c-4.7,0.2-9.4,0.3-14.1,0.3v-9.3c4.8,0,9.5-0.1,14.2-0.3s9.3-0.4,13.8-0.8c4.5-0.3,9-0.7,13.4-1.2
								C394.6,740.1,398.9,739.6,403.1,739"/>
							<path class="st8" d="M348.8,742.9v9.3c-0.1,0-0.3,0-0.4,0s-0.3,0-0.4,0s-0.3,0-0.4,0s-0.3,0-0.4,0c-5.3,0-10.5-0.1-15.7-0.3
								s-10.2-0.5-15.2-0.9s-9.9-0.8-14.7-1.4c-4.8-0.6-9.5-1.2-14-1.9l-0.4-9.3c4.6,0.7,9.3,1.4,14.1,1.9c4.8,0.6,9.7,1,14.8,1.4
								c5,0.4,10.1,0.7,15.3,0.9c5.2,0.2,10.5,0.3,15.8,0.3c0.1,0,0.3,0,0.4,0s0.3,0,0.4,0s0.3,0,0.4,0
								C348.5,742.9,348.6,742.9,348.8,742.9"/>
							<path class="st9" d="M287,738.4l0.4,9.3c-13-2-25.1-4.7-35.8-7.9s-20.2-6.9-28.1-11.1c-7.9-4.1-14.2-8.7-18.7-13.5
								s-7.1-9.9-7.6-15.2l-1-9.4c0.5,5.3,3.2,10.4,7.7,15.2s10.9,9.4,18.8,13.5c8,4.2,17.5,7.9,28.3,11.1
								C261.8,733.7,273.9,736.4,287,738.4"/>
						</g>
					</g>
				</g>
				<g>
					<path class="st10" d="M347,634.3c20.3,0,39.7,1.4,57.4,4.1c17.7,2.6,33.8,6.4,47.4,11.2c13.7,4.8,24.9,10.4,32.8,16.8
						c8,6.4,12.6,13.5,13.1,20.9c0.5,7.5-3.3,14.7-10.5,21.3c-7.3,6.6-18.2,12.6-31.8,17.7c-13.7,5.1-30.1,9.2-48.5,12.1
						c-18.4,2.9-38.7,4.5-60.1,4.5c-21.3,0-41.7-1.6-60.1-4.5s-34.8-7-48.5-12.1c-13.6-5.1-24.5-11.1-31.8-17.7
						c-7.3-6.6-11-13.8-10.5-21.3s5.2-14.5,13.1-20.9c7.9-6.4,19.1-12,32.8-16.8c13.6-4.7,29.7-8.6,47.4-11.2
						C307.3,635.8,326.7,634.3,347,634.3z"/>
				</g>
			</g>
		</g>
	</g>
</g>
</svg>
