<?xml version="1.0" encoding="utf-8"?>
<!-- Generator: Adobe Illustrator 25.4.1, SVG Export Plug-In . SVG Version: 6.00 Build 0)  -->
<svg version="1.1" id="Layer_1" xmlns="http://www.w3.org/2000/svg" xmlns:xlink="http://www.w3.org/1999/xlink" x="0px" y="0px"
	 viewBox="0 0 1920 1080" style="enable-background:new 0 0 1920 1080;" xml:space="preserve">
<style type="text/css">
	.st0{fill:#990707;}
	.st1{clip-path:url(#SVGID_00000093900038032054173680000016520722270630336431_);}
	.st2{enable-background:new    ;}
	.st3{fill:#8D0606;}
	.st4{fill:#650505;}
	.st5{clip-path:url(#SVGID_00000143613513317595535310000010774664661146712209_);enable-background:new    ;}
	.st6{fill:#5C0404;}
	.st7{fill:#5F0404;}
	.st8{fill:#590404;}
	.st9{fill:#560404;}
	.st10{fill:#530404;}
	.st11{fill:#500404;}
	.st12{fill:#660505;}
	.st13{clip-path:url(#SVGID_00000096759813620440869500000007702593264771371187_);enable-background:new    ;}
	.st14{clip-path:url(#SVGID_00000124137961321909259470000003031457467291285647_);enable-background:new    ;}
</style>
<path class="st0" d="M1756,607"/>
<g>
	<defs>
		<rect id="SVGID_1_" width="1920" height="1080"/>
	</defs>
	<clipPath id="SVGID_00000132058742714929485210000004966120916903772071_">
		<use xlink:href="#SVGID_1_"  style="overflow:visible;"/>
	</clipPath>
	<g style="clip-path:url(#SVGID_00000132058742714929485210000004966120916903772071_);">
		<g>
			<g>
				<g class="st2">
					<g>
						<polygon class="st3" points="917.4,482 1027,482 1028.1,538.1 916,536.3 						"/>
					</g>
					<g>
						<polygon class="st4" points="1028.1,538.1 1023.8,654.3 920.3,652.7 916,536.3 						"/>
					</g>
				</g>
			</g>
		</g>
		<g>
			<g>
				<g class="st2">
					<g>
						<path class="st3" d="M918.6,609.1h106.8c0.1,4.5-1.3,8.8-3.9,12.7s-6.5,7.5-11.3,10.5s-10.6,5.4-17.1,7.1
							c-6.5,1.7-13.6,2.6-21.1,2.6s-14.6-0.9-21.1-2.6c-6.5-1.7-12.2-4.1-17.1-7.1c-4.8-3-8.7-6.6-11.3-10.5
							C919.9,617.9,918.5,613.6,918.6,609.1z"/>
					</g>
					<g class="st2">
						<g>
							<defs>
								<path id="SVGID_00000100352370603434632120000017588077671682755729_" d="M1025.4,610.3c-0.5,13.2-0.9,26.5-1.4,39.7
									c-0.2,4.3-1.7,8.5-4.3,12.2c-2.7,3.8-6.5,7.2-11.1,10c-4.7,2.9-10.2,5.2-16.4,6.8s-13,2.5-20.1,2.5s-13.9-0.9-20.1-2.5
									c-6.2-1.6-11.7-3.9-16.4-6.8c-4.7-2.9-8.5-6.3-11.1-10c-2.7-3.8-4.2-7.9-4.3-12.2l-1.4-39.7c0.2,4.4,1.7,8.5,4.5,12.3
									c2.7,3.8,6.6,7.2,11.4,10.1c4.8,2.9,10.5,5.2,16.9,6.9c6.3,1.6,13.3,2.5,20.6,2.5s14.3-0.9,20.6-2.5s12.1-4,16.9-6.9
									c4.8-2.9,8.7-6.3,11.4-10.1C1023.7,618.8,1025.2,614.6,1025.4,610.3z"/>
							</defs>
							<clipPath id="SVGID_00000038379510718796893650000004554559226241100192_">
								<use xlink:href="#SVGID_00000100352370603434632120000017588077671682755729_"  style="overflow:visible;"/>
							</clipPath>
							<g style="clip-path:url(#SVGID_00000038379510718796893650000004554559226241100192_);enable-background:new    ;">
								<path class="st6" d="M1025.4,610.3L1024,650c0,0.4,0,0.8-0.1,1.2c0,0.4-0.1,0.8-0.2,1.2c-0.1,0.4-0.1,0.8-0.2,1.2
									c-0.1,0.4-0.2,0.8-0.3,1.2l1.4-39.7c0.1-0.4,0.2-0.8,0.3-1.2c0.1-0.4,0.2-0.8,0.2-1.2c0.1-0.4,0.1-0.8,0.2-1.2
									C1025.3,611.1,1025.4,610.7,1025.4,610.3"/>
								<path class="st7" d="M1024.6,615.2l-1.4,39.7c-0.6,1.9-1.4,3.8-2.5,5.7c-1.1,1.8-2.4,3.6-4,5.2c-1.6,1.6-3.4,3.2-5.4,4.6
									c-2,1.4-4.2,2.8-6.7,4l0.9-39.5c2.5-1.2,4.8-2.6,6.8-4c2.1-1.5,3.9-3,5.6-4.7c1.6-1.7,3-3.4,4.1-5.3
									C1023.2,619.1,1024,617.1,1024.6,615.2"/>
								<path class="st6" d="M1005.5,634.8l-0.9,39.5c-0.8,0.4-1.6,0.8-2.4,1.2c-0.8,0.4-1.7,0.7-2.6,1.1c-0.9,0.3-1.8,0.7-2.7,1
									s-1.8,0.6-2.8,0.9l0.6-39.5c1-0.3,1.9-0.6,2.8-0.9c0.9-0.3,1.8-0.6,2.7-1c0.9-0.3,1.8-0.7,2.6-1.1
									C1003.9,635.6,1004.7,635.2,1005.5,634.8"/>
								<path class="st8" d="M994.8,638.9l-0.6,39.5c-0.8,0.2-1.7,0.5-2.5,0.7c-0.9,0.2-1.7,0.4-2.6,0.6c-0.9,0.2-1.8,0.4-2.7,0.5
									c-0.9,0.2-1.8,0.3-2.7,0.4l0.3-39.4c0.9-0.1,1.9-0.3,2.8-0.4c0.9-0.2,1.8-0.3,2.7-0.5s1.8-0.4,2.7-0.6
									C993.1,639.4,994,639.2,994.8,638.9"/>
								<path class="st9" d="M984.1,641.2l-0.3,39.4c-0.9,0.1-1.8,0.2-2.8,0.3c-0.9,0.1-1.9,0.2-2.8,0.3s-1.9,0.1-2.9,0.2
									s-1.9,0.1-2.9,0.1v-39.4c1,0,2,0,3-0.1s2-0.1,3-0.2c1-0.1,1.9-0.2,2.9-0.3C982.2,641.5,983.1,641.4,984.1,641.2"/>
								<path class="st10" d="M972.4,642.1v39.4h-0.1h-0.1h-0.1H972c-1.1,0-2.2,0-3.2-0.1c-1.1,0-2.1-0.1-3.2-0.2
									c-1.1-0.1-2.1-0.2-3.1-0.3s-2.1-0.3-3.1-0.4l-0.3-39.4c1,0.2,2.1,0.3,3.2,0.4c1.1,0.1,2.1,0.2,3.2,0.3
									c1.1,0.1,2.2,0.1,3.3,0.2c1.1,0,2.2,0.1,3.3,0.1h0.1H972.4C972.3,642.1,972.2,642.1,972.4,642.1
									C972.3,642.1,972.3,642.1,972.4,642.1"/>
								<path class="st11" d="M959,641.1l0.3,39.4c-5.6-0.9-10.8-2.3-15.5-4.2s-8.9-4.2-12.4-6.9s-6.3-5.7-8.2-9
									c-2-3.3-3.1-6.8-3.2-10.5l-1.4-39.7c0.1,3.7,1.3,7.2,3.3,10.5s4.9,6.4,8.5,9.1c3.6,2.7,7.9,5.1,12.7,7
									C947.9,638.8,953.3,640.2,959,641.1"/>
							</g>
						</g>
					</g>
				</g>
			</g>
		</g>
		<g>
			<g>
				<g class="st2">
					<g>
						<polygon class="st12" points="1028.5,546.3 1028.3,551.3 1018.9,551.7 1019.1,546.7 						"/>
					</g>
					<g>
						<polygon class="st4" points="929.9,546.7 930,551.7 918.1,551.8 917.9,546.8 						"/>
					</g>
					<g class="st2">
						<g>
							<defs>
								<path id="SVGID_00000124873285144619149900000001585770491809395378_" d="M972.2,569.8v5c-10,0-17.7-1.4-23.5-3.5
									s-9.8-4.9-12.6-7.7c-2.7-2.8-4.2-5.7-5-7.9s-0.9-3.8-1-4.1l-0.1-5c0,0.3,0.2,1.9,1,4.1c0.8,2.2,2.3,5.1,5.1,7.9
									c2.8,2.8,6.8,5.6,12.6,7.7C954.4,568.4,962.1,569.8,972.2,569.8z"/>
							</defs>
							<clipPath id="SVGID_00000176042586572018888310000017222843093757371575_">
								<use xlink:href="#SVGID_00000124873285144619149900000001585770491809395378_"  style="overflow:visible;"/>
							</clipPath>
							<g style="clip-path:url(#SVGID_00000176042586572018888310000017222843093757371575_);enable-background:new    ;">
								<path class="st10" d="M972.2,569.8v5c-1.2,0-2.5,0-3.6-0.1c-1.2,0-2.3-0.1-3.4-0.2c-1.1-0.1-2.2-0.2-3.2-0.3s-2-0.3-3-0.4
									v-5c1,0.2,2,0.3,3,0.4c1,0.1,2.1,0.2,3.2,0.3c1.1,0.1,2.3,0.1,3.4,0.2C969.7,569.8,970.9,569.8,972.2,569.8"/>
								<path class="st11" d="M958.8,568.9v5c-6.8-1.1-12.1-2.9-16-5.1c-4-2.2-6.7-4.8-8.6-7.2c-1.9-2.4-2.9-4.8-3.5-6.6
									s-0.7-3-0.7-3.3l-0.1-5c0,0.3,0.1,1.5,0.7,3.3c0.6,1.8,1.6,4.1,3.5,6.6c1.9,2.4,4.6,5,8.6,7.2
									C946.7,565.9,952,567.8,958.8,568.9"/>
							</g>
						</g>
					</g>
					<g>
						<path class="st3" d="M918.7,511.4l108.9,1.4l0.8,33.5l-9.4,0.4c-1.2,5.4-4,9.5-7.7,12.7s-8.4,5.4-13.1,7
							c-4.8,1.6-9.6,2.4-13.9,2.9c-4.2,0.5-7.8,0.6-10,0.6c-0.4,0-0.7,0-0.9,0c-0.3,0-0.5,0-0.7,0s-0.3,0-0.4,0c-0.1,0-0.2,0-0.2,0
							c-10.1,0-17.8-1.4-23.6-3.5s-9.9-4.9-12.6-7.7c-2.7-2.8-4.2-5.7-5.1-7.9c-0.8-2.2-0.9-3.8-1-4.1l-12,0.1L918.7,511.4z"/>
					</g>
					<g class="st2">
						<g>
							<defs>
								<path id="SVGID_00000152259791054996578540000013330266859006018962_" d="M1019.1,546.7l-0.2,5c-1.2,5.4-4,9.5-7.7,12.7
									s-8.3,5.4-13.1,7c-4.7,1.6-9.6,2.4-13.8,2.9s-7.8,0.6-10,0.6c-0.4,0-0.7,0-0.9,0s-0.5,0-0.7,0s-0.3,0-0.4,0
									c-0.1,0-0.2,0-0.2,0v-5c0,0,0.1,0,0.2,0c0.1,0,0.2,0,0.4,0s0.4,0,0.7,0s0.6,0,0.9,0c2.2,0,5.8-0.1,10-0.6s9.1-1.4,13.9-2.9
									c4.7-1.6,9.4-3.8,13.1-7C1015.1,556.2,1017.9,552,1019.1,546.7z"/>
							</defs>
							<clipPath id="SVGID_00000161597828073131406840000015918027695222618258_">
								<use xlink:href="#SVGID_00000152259791054996578540000013330266859006018962_"  style="overflow:visible;"/>
							</clipPath>
							<g style="clip-path:url(#SVGID_00000161597828073131406840000015918027695222618258_);enable-background:new    ;">
								<path class="st6" d="M1019.1,546.7l-0.2,5c0,0.1-0.1,0.2-0.1,0.4s-0.1,0.2-0.1,0.4c0,0.1-0.1,0.2-0.1,0.4
									c0,0.1-0.1,0.2-0.1,0.3l0.2-5c0-0.1,0.1-0.2,0.1-0.3s0.1-0.2,0.1-0.4c0-0.1,0.1-0.2,0.1-0.4
									C1019.1,546.9,1019.1,546.8,1019.1,546.7"/>
								<path class="st7" d="M1018.7,548.1l-0.2,5c-0.5,1.9-1.3,3.6-2.2,5.2c-0.9,1.6-2,3-3.2,4.3s-2.6,2.4-4,3.5
									c-1.5,1-3,2-4.6,2.8l0.1-5c1.6-0.8,3.2-1.7,4.7-2.8c1.5-1,2.8-2.2,4.1-3.5c1.2-1.3,2.3-2.7,3.2-4.3S1018.2,550,1018.7,548.1
									"/>
								<path class="st6" d="M1004.6,563.8l-0.1,5c-0.6,0.3-1.3,0.6-2,0.9c-0.7,0.3-1.3,0.6-2,0.8c-0.7,0.3-1.4,0.5-2,0.7
									c-0.7,0.2-1.4,0.4-2.1,0.6l0.1-5c0.7-0.2,1.4-0.4,2.1-0.6c0.7-0.2,1.4-0.5,2-0.7c0.7-0.3,1.4-0.5,2-0.8
									C1003.3,564.4,1003.9,564.1,1004.6,563.8"/>
								<path class="st8" d="M996.5,566.9l-0.1,5c-0.8,0.2-1.7,0.5-2.5,0.7s-1.7,0.4-2.5,0.6c-0.8,0.2-1.6,0.3-2.4,0.5
									c-0.8,0.1-1.6,0.3-2.4,0.4v-5c0.8-0.1,1.6-0.2,2.4-0.4c0.8-0.1,1.6-0.3,2.4-0.5c0.8-0.2,1.7-0.4,2.5-0.6
									C994.8,567.4,995.6,567.2,996.5,566.9"/>
								<path class="st9" d="M986.7,569v5c-1.2,0.2-2.5,0.3-3.6,0.4c-1.1,0.1-2.2,0.2-3.3,0.3c-1,0.1-2,0.1-2.8,0.1s-1.6,0-2.3,0v-5
									c0.6,0,1.4,0,2.3,0c0.9,0,1.8-0.1,2.8-0.1c1-0.1,2.1-0.1,3.3-0.3C984.2,569.3,985.4,569.2,986.7,569"/>
								<path class="st10" d="M974.7,569.9v5h-0.1c0,0,0,0-0.1,0c0,0,0,0-0.1,0c0,0,0,0-0.1,0c-0.4,0-0.7,0-0.9,0s-0.5,0-0.7,0
									s-0.3,0-0.4,0c-0.1,0-0.2,0-0.2,0v-5c0,0,0.1,0,0.2,0c0.1,0,0.2,0,0.4,0s0.4,0,0.7,0s0.6,0,0.9,0c0,0,0,0,0.1,0
									c0,0,0,0,0.1,0S974.6,569.9,974.7,569.9L974.7,569.9"/>
							</g>
						</g>
					</g>
				</g>
			</g>
		</g>
	</g>
</g>
</svg>
