<?xml version="1.0" encoding="utf-8"?>
<!-- Generator: Adobe Illustrator 25.4.1, SVG Export Plug-In . SVG Version: 6.00 Build 0)  -->
<svg version="1.1" id="Layer_1" xmlns="http://www.w3.org/2000/svg" xmlns:xlink="http://www.w3.org/1999/xlink" x="0px" y="0px"
	 viewBox="0 0 1920 1080" style="enable-background:new 0 0 1920 1080;" xml:space="preserve">
<style type="text/css">
	.st0{fill:#990707;}
	.st1{clip-path:url(#SVGID_00000027599148331106407360000003939656233896529288_);}
	.st2{enable-background:new    ;}
	.st3{fill:#670505;}
	.st4{fill:#4D0404;}
	.st5{fill:#8F0707;}
	.st6{fill:#650505;}
	.st7{fill:#660505;}
</style>
<path class="st0" d="M1756,607"/>
<g>
	<defs>
		<rect id="SVGID_1_" width="1920" height="1080"/>
	</defs>
	<clipPath id="SVGID_00000183221373176713027660000018422172508561003427_">
		<use xlink:href="#SVGID_1_"  style="overflow:visible;"/>
	</clipPath>
	<g style="clip-path:url(#SVGID_00000183221373176713027660000018422172508561003427_);">
		<g>
			<g>
				<g class="st2">
					<g>
						<polygon class="st3" points="1729.9,545.2 1720.4,636 1621.8,636.2 1625.1,545 						"/>
					</g>
					<g>
						<polygon class="st4" points="1625.1,545 1621.8,636.2 1597.5,584.2 1599.3,491.8 						"/>
					</g>
					<g>
						<polygon class="st5" points="1599.3,491.8 1802.4,495.5 1874.6,598.6 1761.6,598.7 1729.9,545.2 1625.1,545 						"/>
					</g>
					<g>
						<polygon class="st6" points="1874.6,598.6 1856.3,687.6 1750,688.1 1761.6,598.7 						"/>
					</g>
					<g>
						<polygon class="st4" points="1761.6,598.7 1750,688.1 1720.4,636 1729.9,545.2 						"/>
					</g>
				</g>
			</g>
		</g>
		<g>
			<g class="st2">
				<g>
					<polygon class="st4" points="1640.9,601 1636.2,663 1622,636 1624.7,572.2 					"/>
				</g>
				<g>
					<polygon class="st7" points="1758,625 1750,688 1698.4,688.5 1705.7,627 					"/>
				</g>
				<g>
					<polygon class="st5" points="1624.7,572.2 1726.8,575.5 1758,625 1705.7,627 1652.8,628 1640.9,601 					"/>
				</g>
				<g>
					<polygon class="st7" points="1705.7,627 1698.4,688.5 1649,689 1652.8,628 					"/>
				</g>
				<g>
					<polygon class="st4" points="1652.8,628 1649,689 1636.2,663 1640.9,601 					"/>
				</g>
			</g>
		</g>
	</g>
</g>
</svg>
